<svg width="16" height="16" fill="none" xmlns="http://www.w3.org/2000/svg"><path fill="#FFEC7A" d="M0 0h16v16H0z"/><path d="M2.393 6.9h.486c.164 0 .287.044.369.132.082.088.123.217.123.387v.207c0 .17-.041.299-.123.387-.082.088-.205.132-.369.132h-.156V9h-.33V6.9Zm.486.945c.054 0 .094-.015.12-.045.028-.03.042-.081.042-.153v-.249c0-.072-.014-.123-.042-.153-.026-.03-.066-.045-.12-.045h-.156v.645h.156ZM4.492 9.03c-.162 0-.286-.046-.372-.138-.086-.092-.129-.222-.129-.39V7.398c0-.168.043-.298.13-.39.085-.092.21-.138.371-.138.162 0 .286.046.372.138.086.092.13.222.13.39v1.104c0 .168-.044.298-.13.39-.086.092-.21.138-.372.138Zm0-.3c.114 0 .171-.069.171-.207V7.377c0-.138-.057-.207-.17-.207-.115 0-.172.069-.172.207v1.146c0 .138.057.207.171.207ZM5.928 7.2h-.345v-.3h1.02v.3h-.345V9h-.33V7.2Zm1.3-.3h.488c.17 0 .294.04.372.12.078.078.117.199.117.363v.129c0 .218-.072.356-.216.414v.006c.08.024.136.073.168.147a.72.72 0 0 1 .051.297v.369c0 .06.002.109.006.147a.364.364 0 0 0 .03.108h-.336a.481.481 0 0 1-.024-.096 1.444 1.444 0 0 1-.006-.162v-.384c0-.096-.016-.163-.048-.201-.03-.038-.083-.057-.159-.057h-.114V9h-.33V6.9Zm.45.9c.065 0 .114-.017.146-.051.034-.034.051-.091.051-.171v-.162c0-.076-.014-.131-.042-.165-.026-.034-.068-.051-.126-.051h-.15v.6h.12Zm1.224-.9h.486c.164 0 .287.044.37.132.081.088.122.217.122.387v.207c0 .17-.04.299-.123.387-.082.088-.205.132-.369.132h-.156V9h-.33V6.9Zm.486.945c.054 0 .094-.015.12-.045.028-.03.042-.081.042-.153v-.249c0-.072-.014-.123-.042-.153-.026-.03-.066-.045-.12-.045h-.156v.645h.156Zm1.614 1.185c-.162 0-.286-.046-.372-.138-.086-.092-.13-.222-.13-.39V7.398c0-.168.044-.298.13-.39.086-.092.21-.138.372-.138s.286.046.372.138c.086.092.129.222.129.39v1.104c0 .168-.043.298-.13.39-.085.092-.21.138-.371.138Zm0-.3c.114 0 .17-.069.17-.207V7.377c0-.138-.056-.207-.17-.207-.114 0-.171.069-.171.207v1.146c0 .138.057.207.17.207Zm1.435-1.53h-.345v-.3h1.02v.3h-.345V9h-.33V7.2Zm1.729 1.83c-.16 0-.281-.045-.363-.135-.082-.092-.123-.223-.123-.393v-.12h.312v.144c0 .136.057.204.17.204.057 0 .099-.016.127-.048.03-.034.045-.088.045-.162a.437.437 0 0 0-.06-.231 1.088 1.088 0 0 0-.222-.243 1.345 1.345 0 0 1-.285-.324.672.672 0 0 1-.081-.33c0-.166.042-.294.126-.384.084-.092.206-.138.366-.138.158 0 .277.046.357.138.082.09.123.22.123.39v.087h-.312v-.108c0-.072-.014-.124-.042-.156-.028-.034-.07-.051-.123-.051-.11 0-.165.067-.165.201 0 .076.02.147.06.213.042.066.117.146.225.24.138.12.233.229.285.327a.726.726 0 0 1 .078.345c0 .172-.043.304-.13.396-.083.092-.206.138-.368.138Z" fill="#000"/></svg>